<svg xmlns="http://www.w3.org/2000/svg" viewBox="0 0 240 210" width="240" height="210">
  <rect x="0" y="0" width="96" height="210" fill="#0066B3" />
  <rect x="96" y="0" width="144" height="210" fill="#E30613" />
  
  <!-- Escudo Nacional Chile -->
  <g fill="none" stroke="#FFFFFF" stroke-width="3" stroke-linecap="round" stroke-linejoin="round" transform="translate(18, 12) scale(0.6)">
    <path d="M 50 10 L 85 25 C 85 60 70 85 50 95 C 30 85 15 60 15 25 Z" fill="#0066B3" stroke="#FFFFFF" stroke-width="4" />
    <polygon points="50,32 54,42 65,42 56,48 60,59 50,52 40,59 44,48 35,42 46,42" fill="#FFFFFF" stroke="none" />
    <path d="M 12 30 C 5 20 0 35 10 55 C 15 65 15 80 10 90" stroke="#FFFFFF" stroke-width="3" />
    <path d="M 88 30 C 95 20 100 35 90 55 C 85 65 85 80 90 90" stroke="#FFFFFF" stroke-width="3" />
    <path d="M 5 92 Q 50 102 95 92" stroke="#FFFFFF" stroke-width="3" />
  </g>

  <!-- CNR Text -->
  <text x="108" y="42" font-family="Arial, Helvetica, sans-serif" font-weight="900" font-size="28" fill="#FFFFFF">CNR</text>
  <text x="108" y="62" font-family="Arial, Helvetica, sans-serif" font-weight="700" font-size="13" fill="#FFFFFF">Ministerio de</text>
  <text x="108" y="78" font-family="Arial, Helvetica, sans-serif" font-weight="700" font-size="13" fill="#FFFFFF">Agricultura</text>
  
  <text x="108" y="192" font-family="Arial, Helvetica, sans-serif" font-weight="700" font-size="12" fill="#FFFFFF">Gobierno de Chile</text>
</svg>
